<?xml version="1.0" encoding="UTF-8" standalone="no"?>
<!DOCTYPE svg PUBLIC "-//W3C//DTD SVG 1.1//EN" "http://www.w3.org/Graphics/SVG/1.1/DTD/svg11.dtd">
<svg width="100%" height="100%" viewBox="0 0 512 512" version="1.1" xmlns="http://www.w3.org/2000/svg" xmlns:xlink="http://www.w3.org/1999/xlink" xml:space="preserve" xmlns:serif="http://www.serif.com/" style="fill-rule:evenodd;clip-rule:evenodd;stroke-linejoin:round;stroke-miterlimit:2;">
    <path d="M253.824,6L330.948,6L381,77.481L431.052,6L506,6L418.474,131L506,256L505.999,256.808C505.552,394.426 393.703,506 256,506C187.011,506 124.511,477.995 79.258,432.742L79.258,506L6,506L6,256L6.001,255.192C6.446,118.303 117.115,7.183 253.831,6.01L253.824,6ZM211.208,427.007L290.019,314.453L422.831,314.453C398.671,383.316 333.062,432.742 256,432.742C240.529,432.742 225.52,430.75 211.208,427.007ZM256,79.258C179.182,79.258 113.745,128.372 89.398,196.897L214.552,196.897L214.552,256L79.258,256C79.258,315.845 109.066,368.783 154.634,400.765L342.438,132.554L305.12,79.258L256,79.258ZM379.912,186.072L330.948,256L428.876,256L379.912,186.072Z" style="fill:rgb(63,161,8);"/>
</svg>
